<?xml version="1.0" standalone="no"?>
<!DOCTYPE svg PUBLIC "-//W3C//DTD SVG 20010904//EN"
 "http://www.w3.org/TR/2001/REC-SVG-20010904/DTD/svg10.dtd">
<svg version="1.0" xmlns="http://www.w3.org/2000/svg"
 width="200.000000pt" height="200.000000pt" viewBox="0 0 200.000000 200.000000"
 preserveAspectRatio="xMidYMid meet">
<metadata>
Created by potrace 1.11, written by Peter Selinger 2001-2013
</metadata>
<g transform="translate(0.000000,200.000000) scale(0.100000,-0.100000)"
fill="#000000" stroke="none">
<path d="M920 1719 c-220 -30 -413 -201 -477 -421 -61 -211 -5 -425 153 -582
154 -155 391 -211 598 -142 448 151 548 733 178 1026 -124 98 -288 141 -452
119z"/>
<path d="M233 898 c3 -15 -93 -80 -109 -74 -24 9 -23 -8 2 -39 24 -29 24 -30
30 -8 7 25 46 43 52 24 2 -6 10 -18 18 -26 12 -12 11 -16 -8 -29 -15 -11 -24
-12 -29 -5 -5 8 -8 8 -13 0 -7 -11 23 -60 37 -61 4 0 7 6 7 14 0 16 89 76 113
76 10 0 17 3 17 8 -1 10 -38 58 -42 52 -2 -3 -8 -14 -14 -25 -16 -29 -36 -28
-57 1 -18 24 -18 26 -1 38 9 7 26 11 36 8 22 -5 23 2 2 33 -17 26 -46 35 -41
13z"/>
<path d="M1710 870 c-6 -11 -7 -21 -3 -21 4 -1 13 -2 18 -4 6 -1 16 -3 23 -3
9 -2 8 -8 -4 -27 -21 -32 -11 -58 29 -80 39 -20 66 -17 81 9 6 11 19 29 28 39
17 20 15 43 -3 31 -6 -3 -40 13 -78 35 -37 23 -70 41 -74 41 -3 0 -11 -9 -17
-20z m130 -97 c0 -19 -18 -25 -42 -12 -31 16 -39 31 -26 46 8 10 16 9 39 -4
16 -10 29 -23 29 -30z"/>
<path d="M1693 739 c-44 -16 -49 -67 -9 -101 57 -47 130 8 96 72 -13 23 -59
39 -87 29z m57 -44 c15 -18 6 -45 -15 -45 -20 0 -57 38 -50 50 9 15 51 12 65
-5z"/>
<path d="M284 718 c-46 -22 -48 -84 -4 -108 29 -15 47 -2 21 17 -21 14 -29 43
-13 43 5 0 19 -12 33 -26 l24 -25 17 21 c23 29 23 45 -2 70 -22 22 -43 24 -76
8z m61 -28 c11 -17 -5 -32 -21 -19 -7 6 -11 15 -8 20 7 12 21 11 29 -1z"/>
<path d="M387 644 c-10 -11 3 -24 23 -24 21 0 34 -15 25 -30 -3 -5 -19 -3 -40
7 -28 13 -37 14 -50 3 -22 -18 -19 -47 8 -61 12 -7 26 -18 30 -25 4 -8 12 -14
17 -14 5 0 21 -11 36 -25 31 -29 44 -32 44 -8 0 15 24 51 69 102 26 30 26 37
2 51 -27 14 -34 13 -28 -5 4 -8 -9 -32 -28 -56 -19 -22 -35 -45 -35 -50 0 -5
-9 -9 -20 -9 -27 0 -25 22 5 50 31 29 32 50 2 78 -23 22 -48 28 -60 16z m18
-73 c3 -5 1 -13 -5 -16 -15 -9 -43 3 -35 15 8 13 32 13 40 1z"/>
<path d="M1593 642 c-6 -4 -16 -20 -22 -35 -9 -22 -7 -31 12 -52 31 -36 63
-39 93 -10 30 30 30 55 1 83 -23 22 -62 28 -84 14z m62 -42 c18 -20 18 -21 1
-38 -16 -16 -19 -15 -42 11 -13 16 -22 33 -19 38 10 16 41 10 60 -11z"/>
<path d="M1456 587 c-52 -35 -57 -41 -39 -48 29 -10 93 -88 86 -105 -8 -20 15
-17 44 6 l25 20 -25 9 c-35 13 -40 36 -12 51 13 7 21 18 18 26 -4 11 -11 10
-32 -6 -29 -20 -51 -12 -51 17 0 17 35 34 54 27 19 -7 22 19 4 34 -9 7 -30 -2
-72 -31z"/>
<path d="M576 553 c-4 -5 -13 -8 -19 -8 -7 0 -11 -8 -9 -18 2 -10 -6 -30 -18
-46 -30 -43 -25 -56 30 -85 55 -29 72 -32 68 -13 -3 14 22 77 31 77 3 0 13 -5
21 -10 13 -8 13 -14 -4 -44 -10 -20 -23 -33 -27 -30 -5 3 -9 1 -9 -5 0 -6 13
-17 29 -25 26 -14 30 -14 35 -1 3 8 1 15 -5 15 -5 0 -2 11 6 24 25 38 26 64 3
80 -12 9 -26 12 -31 9 -10 -6 -7 14 7 48 5 11 -1 19 -19 27 -23 11 -26 10 -23
-5 5 -23 -46 -129 -66 -136 -24 -9 -30 40 -8 68 11 13 22 22 25 19 3 -3 11 -3
17 1 8 5 8 10 0 20 -8 10 -8 15 1 20 8 6 7 10 -2 16 -17 11 -24 11 -33 2z"/>
<path d="M1148 471 c-10 -3 -14 -11 -10 -18 5 -7 13 -9 21 -4 19 12 10 30 -11
22z"/>
<path d="M1330 463 c-13 -9 -34 -17 -47 -18 -13 0 -27 -5 -31 -10 -8 -11 -32
-16 -79 -16 -39 0 -50 -14 -28 -36 13 -12 16 -27 12 -56 l-5 -39 31 6 c38 8
45 15 28 25 -17 11 -27 81 -11 81 15 0 41 -65 34 -84 -7 -19 6 -20 41 -4 27
12 34 28 11 28 -19 0 -40 60 -25 74 14 15 49 -28 49 -61 0 -22 3 -24 27 -18
34 8 41 14 27 23 -6 4 -18 21 -27 38 -14 28 -15 34 -2 44 12 10 18 6 33 -20
11 -17 18 -40 15 -50 -5 -17 -2 -18 32 -7 29 9 34 13 22 21 -7 6 -21 25 -31
43 -23 45 -47 56 -76 36z"/>
<path d="M1078 462 c-26 -3 -41 -22 -18 -22 15 0 33 -127 19 -136 -19 -11 -8
-23 21 -22 33 1 50 16 31 27 -6 4 -14 41 -17 82 -4 40 -7 74 -8 74 0 0 -13 -1
-28 -3z"/>
<path d="M743 434 c3 -10 9 -43 12 -71 6 -50 5 -53 -20 -63 -29 -11 -25 -30 5
-30 11 0 41 26 71 63 29 34 56 61 61 59 4 -1 8 5 8 13 0 9 -9 15 -25 15 -32 0
-41 -3 -37 -13 1 -4 -4 -18 -13 -30 -15 -21 -15 -21 -15 9 0 16 5 35 12 42 9
9 9 12 -2 12 -8 0 -26 3 -39 7 -19 5 -22 3 -18 -13z"/>
<path d="M946 434 c-29 -29 -19 -54 29 -75 44 -19 58 -42 33 -52 -17 -6 -58
10 -58 23 0 5 -6 10 -14 10 -17 0 -16 -31 3 -46 22 -17 87 -17 105 1 30 30 19
54 -38 81 -44 22 -47 36 -10 46 21 5 27 3 31 -13 7 -25 33 -25 33 1 0 38 -83
56 -114 24z"/>
</g>
</svg>
